<svg xmlns="http://www.w3.org/2000/svg" viewBox="0 0 64 64">
  <defs>
    <linearGradient id="gl-favicon-gradient" x1="12" y1="8" x2="52" y2="56" gradientUnits="userSpaceOnUse">
      <stop offset="0" stop-color="#1e40af" />
      <stop offset="1" stop-color="#2563eb" />
    </linearGradient>
  </defs>
  <rect width="64" height="64" rx="14" fill="url(#gl-favicon-gradient)" />
  <path
    fill="#f8fafc"
    d="M23 18h18c6.627 0 12 5.373 12 12v4h-9v-4a3 3 0 0 0-3-3H23a3 3 0 0 0-3 3v16a3 3 0 0 0 3 3h11v-9h-6v-7h15v18a6 6 0 0 1-6 6H23c-6.627 0-12-5.373-12-12V30c0-6.627 5.373-12 12-12Z"
  />
</svg>


